<?xml version="1.0" encoding="UTF-8" standalone="no"?>
<!-- Created with Inkscape (http://www.inkscape.org/) -->

<svg
   xmlns:dc="http://purl.org/dc/elements/1.1/"
   xmlns:cc="http://creativecommons.org/ns#"
   xmlns:rdf="http://www.w3.org/1999/02/22-rdf-syntax-ns#"
   xmlns:svg="http://www.w3.org/2000/svg"
   xmlns="http://www.w3.org/2000/svg"
   xmlns:sodipodi="http://sodipodi.sourceforge.net/DTD/sodipodi-0.dtd"
   xmlns:inkscape="http://www.inkscape.org/namespaces/inkscape"
   width="127mm"
   height="128.5mm"
   viewBox="0 0 127 128.5"
   version="1.1"
   id="svg37394"
   inkscape:version="0.92.2 2405546, 2018-03-11"
   sodipodi:docname="NotStraightLines.svg">
  <defs
     id="defs37388" />
  <sodipodi:namedview
     id="base"
     pagecolor="#ffffff"
     bordercolor="#666666"
     borderopacity="1.0"
     inkscape:pageopacity="0.0"
     inkscape:pageshadow="2"
     inkscape:zoom="1.979899"
     inkscape:cx="173.13259"
     inkscape:cy="43.785922"
     inkscape:document-units="mm"
     inkscape:current-layer="layer1"
     showgrid="false"
     inkscape:snap-bbox="true"
     inkscape:snap-bbox-midpoints="true"
     inkscape:snap-page="true"
     inkscape:snap-object-midpoints="false"
     inkscape:snap-global="true"
     inkscape:window-width="1600"
     inkscape:window-height="900"
     inkscape:window-x="0"
     inkscape:window-y="0"
     inkscape:window-maximized="0"
     inkscape:bbox-nodes="false"
     inkscape:snap-text-baseline="true"
     inkscape:snap-bbox-edge-midpoints="false"
     inkscape:bbox-paths="true" />
  <metadata
     id="metadata37391">
    <rdf:RDF>
      <cc:Work
         rdf:about="">
        <dc:format>image/svg+xml</dc:format>
        <dc:type
           rdf:resource="http://purl.org/dc/dcmitype/StillImage" />
        <dc:title></dc:title>
      </cc:Work>
    </rdf:RDF>
  </metadata>
  <g
     inkscape:label="Layer 1"
     inkscape:groupmode="layer"
     id="layer1"
     transform="translate(0,-168.5)">
    <rect
       style="opacity:1;vector-effect:none;fill:#fcfcfc;fill-opacity:1;fill-rule:evenodd;stroke:none;stroke-width:0.69999999;stroke-linecap:butt;stroke-linejoin:miter;stroke-miterlimit:4;stroke-dasharray:none;stroke-dashoffset:0;stroke-opacity:0.50196078;paint-order:normal"
       id="rect1041"
       width="127"
       height="128.5"
       x="0"
       y="168.5" />
    <g
       aria-label="X"
       style="font-style:normal;font-variant:normal;font-weight:normal;font-stretch:normal;font-size:3.52777767px;line-height:6.61458302px;font-family:'Night Wind Sent Sample';-inkscape-font-specification:'Night Wind Sent Sample';font-variant-ligatures:normal;font-variant-caps:normal;font-variant-numeric:normal;font-feature-settings:normal;text-align:start;letter-spacing:0px;word-spacing:0px;writing-mode:lr-tb;text-anchor:start;fill:#646464;fill-opacity:1;stroke:none;stroke-width:0.26458332px;stroke-linecap:butt;stroke-linejoin:miter;stroke-opacity:1"
       id="text1975">
      <path
         d="m 14.988091,291.69371 c -0.09172,0.1023 -0.201083,0.20108 -0.335139,0.26105 -0.07761,0.0353 -0.162278,0.0564 -0.254,0.0564 -0.176389,0 -0.292805,-0.11995 -0.342194,-0.29634 -0.06703,-0.23988 -0.09525,-0.44802 -0.105834,-0.70555 -0.0071,-0.17286 -0.0035,-0.30339 0.116417,-0.46214 0.116417,-0.14817 0.232833,-0.29633 0.342194,-0.43744 0.179917,-0.23637 0.359834,-0.47273 0.532695,-0.71614 0.01764,-0.0282 0.03175,-0.0494 0.01058,-0.0706 -0.02822,-0.0282 -0.0635,0.007 -0.08467,0.0317 -0.232834,0.2787 -0.472723,0.56445 -0.705556,0.84667 -0.04939,0.06 -0.07761,0.0953 -0.134055,0.15169 -0.05645,0.0564 -0.119945,0.0706 -0.134056,-0.007 -0.07056,-0.34573 -0.08819,-0.46214 -0.165806,-0.74789 -0.04586,-0.16934 -0.169333,-0.3175 -0.359833,-0.3175 -0.148167,0 -0.292805,0.1023 -0.426861,0.21166 -0.02822,0.0176 -0.05292,0.067 -0.02469,0.0917 0.02469,0.0247 0.06703,-0.004 0.09878,-0.0247 0.0635,-0.0388 0.130528,-0.0811 0.215195,-0.0811 0.07408,0 0.144639,0.0388 0.186972,0.11642 0.05292,0.0953 0.08114,0.18697 0.105833,0.31044 0.04939,0.26459 0.07056,0.41628 0.109361,0.68087 0.01764,0.11994 0.02469,0.254 -0.04586,0.35277 -0.123472,0.17286 -0.239889,0.30692 -0.373944,0.47625 -0.250472,0.3175 -0.525639,0.68086 -0.73025,1.03011 -0.05645,0.0988 -0.134056,0.26812 -0.155222,0.34573 -0.02117,0.0741 -0.01058,0.17639 0.04939,0.18697 0.05644,0.0141 0.09878,-0.0423 0.116416,-0.0917 0.04233,-0.127 0.08467,-0.23636 0.144639,-0.35278 0.169333,-0.33161 0.381,-0.62442 0.613833,-0.90664 0.105834,-0.13053 0.211667,-0.254 0.324556,-0.37747 0.05997,-0.067 0.09878,-0.0741 0.109361,0.0282 0.01764,0.15522 0.03881,0.32456 0.08467,0.49036 0.0388,0.14464 0.102305,0.28222 0.208139,0.381 0.08819,0.0811 0.208138,0.13053 0.352777,0.13053 0.169334,0 0.352778,-0.0776 0.493889,-0.17639 0.105834,-0.0741 0.194028,-0.16581 0.268111,-0.28222 0.04233,-0.067 0.07408,-0.14111 0.03528,-0.17286 -0.04586,-0.0353 -0.07761,-0.0282 -0.141111,0.0459 z"
         style="font-style:normal;font-variant:normal;font-weight:normal;font-stretch:normal;font-size:3.52777767px;font-family:'Night Wind Sent Sample';-inkscape-font-specification:'Night Wind Sent Sample';fill:#646464;fill-opacity:1;stroke-width:0.26458332px"
         id="path1997" />
    </g>
    <g
       aria-label="Y"
       style="font-style:normal;font-variant:normal;font-weight:normal;font-stretch:normal;font-size:3.52777767px;line-height:6.61458302px;font-family:'Night Wind Sent Sample';-inkscape-font-specification:'Night Wind Sent Sample';font-variant-ligatures:normal;font-variant-caps:normal;font-variant-numeric:normal;font-feature-settings:normal;text-align:start;letter-spacing:0px;word-spacing:0px;writing-mode:lr-tb;text-anchor:start;fill:#646464;fill-opacity:1;stroke:none;stroke-width:0.26458332px;stroke-linecap:butt;stroke-linejoin:miter;stroke-opacity:1"
       id="text1979">
      <path
         d="m 32.523322,293.9409 c -0.08467,0.0741 -0.155222,0.0741 -0.229306,0 -0.05644,-0.0529 -0.123472,-0.0317 -0.162278,0.0317 -0.05997,0.0988 -0.02822,0.1905 0.0635,0.24342 0.05997,0.0353 0.119945,0.0494 0.179917,0.0459 0.144639,-0.007 0.275167,-0.10583 0.377472,-0.22931 0.123473,-0.14816 0.229306,-0.32455 0.324556,-0.52916 0.211666,-0.46214 0.345722,-0.8255 0.490361,-1.32292 0.119944,-0.40922 0.232833,-0.80433 0.345722,-1.2065 0.04586,-0.16933 0.09878,-0.33514 0.162278,-0.50094 0.102305,-0.26459 0.22225,-0.51859 0.384528,-0.75495 0.04586,-0.067 0.07761,-0.15169 0.07761,-0.22578 0,-0.0705 -0.05997,-0.11288 -0.116417,-0.11288 -0.07408,0 -0.148167,0.0741 -0.186972,0.14463 -0.09172,0.16581 -0.179917,0.32456 -0.268111,0.49742 -0.162278,0.32103 -0.335139,0.58208 -0.557389,0.84314 -0.08467,0.10231 -0.176389,0.18697 -0.289278,0.26811 -0.144639,0.10583 -0.3175,0.19756 -0.529166,0.19756 -0.102306,0 -0.229306,-0.0635 -0.229306,-0.18698 0,-0.14816 0.08819,-0.32808 0.15875,-0.49036 0.08819,-0.20108 0.271639,-0.57855 0.271639,-0.79727 0,-0.12348 -0.04586,-0.23989 -0.137583,-0.32103 -0.05644,-0.0494 -0.137584,-0.0776 -0.225778,-0.0776 -0.169334,0.004 -0.313972,0.06 -0.433917,0.1905 -0.02822,0.0282 -0.02822,0.06 -0.0035,0.0847 0.02822,0.0247 0.07056,-0.004 0.155223,-0.0564 0.08819,-0.0564 0.176388,-0.0811 0.254,-0.0811 0.116416,0 0.186972,0.10583 0.186972,0.22578 0,0.14464 -0.102306,0.36689 -0.225778,0.62441 -0.07056,0.14817 -0.137583,0.29987 -0.197556,0.45156 -0.03175,0.0811 -0.05644,0.17992 -0.05644,0.27517 0,0.10583 0.02822,0.20461 0.112889,0.2928 0.08114,0.0811 0.197555,0.13053 0.324555,0.13053 0.229306,0 0.448028,-0.12347 0.649111,-0.27869 0.119945,-0.0917 0.225778,-0.1905 0.331612,-0.29634 0.04939,-0.0494 0.09525,-0.0388 0.07761,0.0459 -0.03528,0.15875 -0.07056,0.3175 -0.109361,0.4692 -0.03175,0.12347 -0.07056,0.25047 -0.105834,0.39158 -0.09525,0.37042 -0.22225,0.76906 -0.352778,1.11125 -0.102305,0.27164 -0.278694,0.70203 -0.511527,0.90311 z"
         style="font-style:normal;font-variant:normal;font-weight:normal;font-stretch:normal;font-size:3.52777767px;font-family:'Night Wind Sent Sample';-inkscape-font-specification:'Night Wind Sent Sample';fill:#646464;fill-opacity:1;stroke-width:0.26458332px"
         id="path1994" />
    </g>
    <g
       aria-label="Gate"
       style="font-style:normal;font-variant:normal;font-weight:normal;font-stretch:normal;font-size:3.52777767px;line-height:6.61458302px;font-family:'Night Wind Sent Sample';-inkscape-font-specification:'Night Wind Sent Sample';font-variant-ligatures:normal;font-variant-caps:normal;font-variant-numeric:normal;font-feature-settings:normal;text-align:start;letter-spacing:0px;word-spacing:0px;writing-mode:lr-tb;text-anchor:start;fill:#646464;fill-opacity:1;stroke:none;stroke-width:0.26458332px;stroke-linecap:butt;stroke-linejoin:miter;stroke-opacity:1"
       id="text1983">
      <path
         d="m 53.053639,289.05846 c 0.09525,0 0.183444,0.0106 0.278694,0.0247 0.02117,0.004 0.03881,-0.0141 0.04586,-0.0317 0.0071,-0.0212 -0.0035,-0.0529 -0.03175,-0.0635 -0.07761,-0.0318 -0.15875,-0.0459 -0.264583,-0.0459 -0.381,0 -0.804334,0.26811 -1.167695,0.64911 -0.522111,0.54681 -0.927805,1.32292 -0.927805,1.88384 0,0.19755 0.04586,0.40216 0.208139,0.56091 0.130527,0.127 0.299861,0.18345 0.504472,0.18345 0.197555,0 0.448028,-0.13053 0.613833,-0.24342 0.05292,-0.0353 0.0882,-0.0212 0.09172,0.0564 0.01058,0.21873 0,0.38806 -0.02469,0.61384 -0.03528,0.32455 -0.123472,0.77964 -0.352778,1.04069 -0.07761,0.0882 -0.172861,0.15522 -0.299861,0.19756 -0.07055,0.0247 -0.109361,0.1023 -0.08467,0.16933 0.03175,0.0882 0.123473,0.10936 0.204612,0.0776 0.144638,-0.0564 0.271638,-0.15522 0.370416,-0.26811 0.271639,-0.32103 0.381,-0.76553 0.426861,-1.22414 0.0247,-0.27869 0.04586,-0.508 0.07056,-0.79022 0.01764,-0.20461 0.08467,-0.38453 0.176389,-0.55739 0.05997,-0.11289 0.09172,-0.19755 0.127,-0.32455 0.02117,-0.0741 0.01764,-0.16934 -0.07056,-0.1905 -0.08467,-0.0212 -0.134055,0.0388 -0.176389,0.10936 -0.07761,0.12347 -0.119944,0.24341 -0.165805,0.38805 -0.06703,0.2152 -0.204611,0.36336 -0.384528,0.48684 -0.169333,0.10583 -0.324556,0.20108 -0.543278,0.20108 -0.250472,0.004 -0.395111,-0.13758 -0.455083,-0.36336 -0.01764,-0.0706 -0.02117,-0.14817 -0.02117,-0.22578 0,-0.37394 0.208139,-0.86783 0.423334,-1.19592 0.130527,-0.20108 0.292805,-0.39864 0.465666,-0.57855 0.09525,-0.0988 0.201084,-0.19403 0.313972,-0.2787 0.141112,-0.10583 0.462139,-0.26105 0.649112,-0.26105 z"
         style="font-style:normal;font-variant:normal;font-weight:normal;font-stretch:normal;font-size:3.52777767px;font-family:'Night Wind Sent Sample';-inkscape-font-specification:'Night Wind Sent Sample';fill:#646464;fill-opacity:1;stroke-width:0.26458332px"
         id="path1985" />
      <path
         d="m 54.320607,291.53143 c 0.01764,-0.0564 0.02822,-0.11642 -0.01411,-0.18344 -0.04939,-0.0776 -0.151695,-0.10937 -0.208139,-0.0423 -0.06703,0.0741 -0.127,0.15522 -0.179917,0.23989 -0.102305,0.16228 -0.243416,0.28222 -0.430389,0.32808 -0.02822,0.007 -0.05997,0 -0.07761,-0.0141 -0.02117,-0.0176 -0.03175,-0.0564 -0.02822,-0.0811 0.03175,-0.20461 0.148167,-0.36688 0.292806,-0.50447 0.137583,-0.13053 0.303388,-0.2293 0.525638,-0.20814 0.03528,0.004 0.09525,0.007 0.109362,-0.0353 0.01058,-0.0423 -0.01058,-0.0706 -0.03175,-0.0811 -0.03175,-0.0176 -0.09172,-0.0353 -0.151695,-0.0353 -0.151694,0 -0.292805,0.0494 -0.41275,0.13758 -0.257528,0.18345 -0.440972,0.42334 -0.564444,0.70909 -0.03175,0.0741 -0.04233,0.16227 -0.01411,0.24694 0.03175,0.0953 0.137583,0.16228 0.232833,0.13758 0.151694,-0.0388 0.289278,-0.10936 0.416278,-0.18697 0.0635,-0.0388 0.109361,-0.067 0.172861,-0.10583 0.01411,0.0212 0.02822,0.0423 0.04233,0.06 0.07056,0.0811 0.169333,0.11642 0.264583,0.11642 0.165806,0 0.289278,-0.0388 0.469195,-0.11642 0.07408,-0.0317 0.144639,-0.0741 0.208139,-0.127 0.02469,-0.0212 0.04233,-0.06 0.02822,-0.0847 -0.02117,-0.0388 -0.04939,-0.0459 -0.09172,-0.0282 -0.05997,0.0247 -0.112889,0.0388 -0.176389,0.06 -0.116417,0.0388 -0.246945,0.0635 -0.370417,0.0564 -0.05292,-0.004 -0.08467,-0.0388 -0.06703,-0.0917 0.01764,-0.0565 0.03528,-0.10584 0.05645,-0.16581 z"
         style="font-style:normal;font-variant:normal;font-weight:normal;font-stretch:normal;font-size:3.52777767px;font-family:'Night Wind Sent Sample';-inkscape-font-specification:'Night Wind Sent Sample';fill:#646464;fill-opacity:1;stroke-width:0.26458332px"
         id="path1987" />
      <path
         d="m 56.052029,291.72193 c -0.03528,0.0176 -0.07056,0.0353 -0.105833,0.0494 -0.134056,0.0635 -0.275167,0.10936 -0.437445,0.14111 -0.08467,0.0176 -0.172861,0.0247 -0.261055,0.0106 -0.05292,-0.007 -0.09172,-0.0423 -0.105834,-0.10583 -0.01058,-0.0423 -0.01058,-0.0847 -0.0035,-0.12347 0.02117,-0.13759 0.05997,-0.27517 0.09878,-0.40922 0.02822,-0.10231 0.09525,-0.1517 0.204611,-0.18345 0.204612,-0.06 0.402167,-0.10936 0.60325,-0.1658 0.04939,-0.0106 0.07056,-0.0247 0.09878,-0.0706 0.01411,-0.0212 0.0035,-0.067 -0.03528,-0.067 -0.0388,-0.004 -0.08467,0.004 -0.127,0.007 -0.151694,0.0141 -0.28575,0.0282 -0.440972,0.0388 -0.06703,0.004 -0.09878,-0.004 -0.07055,-0.0917 0.01764,-0.0529 0.03528,-0.10936 0.0635,-0.15875 0.05644,-0.0952 0.109361,-0.1905 0.162277,-0.28575 0.02822,-0.06 0.03175,-0.0917 -0.01058,-0.15522 -0.02117,-0.0317 -0.08114,-0.0317 -0.109361,-0.004 -0.04233,0.0388 -0.06703,0.067 -0.102306,0.11995 -0.109361,0.1658 -0.197555,0.33161 -0.282222,0.51152 -0.02469,0.0494 -0.08114,0.0811 -0.141111,0.0882 -0.05292,0.007 -0.112889,0.0141 -0.165805,0.0247 -0.03528,0.0106 -0.05997,0.0282 -0.0635,0.0706 -0.0035,0.0247 0.01764,0.06 0.0388,0.0706 0.155222,0.0952 0.123472,0.22225 0.08114,0.36689 -0.03528,0.127 -0.06703,0.26811 -0.08114,0.41628 -0.0035,0.0388 0.0035,0.0776 0.01411,0.11994 0.0247,0.10584 0.102306,0.18345 0.211667,0.20814 0.04586,0.0106 0.08819,0.0106 0.130528,0.0106 0.09172,-0.004 0.186972,-0.0247 0.289277,-0.0494 0.105834,-0.0247 0.1905,-0.0565 0.292806,-0.0988 0.08819,-0.0353 0.169333,-0.0776 0.257528,-0.12347 0.05644,-0.0282 0.116416,-0.0635 0.172861,-0.10584 0.02469,-0.0212 0.03881,-0.06 0.02822,-0.0847 -0.01411,-0.0388 -0.04939,-0.0459 -0.09172,-0.0282 -0.03175,0.0141 -0.06703,0.0318 -0.112889,0.0564 z"
         style="font-style:normal;font-variant:normal;font-weight:normal;font-stretch:normal;font-size:3.52777767px;font-family:'Night Wind Sent Sample';-inkscape-font-specification:'Night Wind Sent Sample';fill:#646464;fill-opacity:1;stroke-width:0.26458332px"
         id="path1989" />
      <path
         d="m 56.310383,291.1716 c -0.123472,0.12347 -0.204611,0.30691 -0.204611,0.49036 0,0.13405 0.04939,0.27516 0.169334,0.35983 0.09878,0.067 0.232833,0.0988 0.373944,0.0988 0.169333,0 0.34925,-0.0353 0.515056,-0.0811 0.137583,-0.0388 0.282222,-0.10583 0.41275,-0.17639 0.03881,-0.0212 0.07761,-0.0494 0.116416,-0.0847 0.0247,-0.0212 0.03881,-0.06 0.02822,-0.0847 -0.01411,-0.0388 -0.04939,-0.0459 -0.09172,-0.0282 -0.02822,0.0141 -0.05644,0.0282 -0.09525,0.0423 -0.127,0.0494 -0.261055,0.0952 -0.405694,0.127 -0.105834,0.0212 -0.211667,0.0353 -0.310445,0.0353 -0.155222,0 -0.324555,-0.0247 -0.363361,-0.14464 0.05997,-0.0282 0.127,-0.067 0.1905,-0.11289 0.102306,-0.0741 0.186972,-0.15875 0.250472,-0.27517 0.07408,-0.13405 0.07056,-0.21519 -0.04939,-0.33514 -0.03881,-0.0353 -0.08467,-0.0529 -0.134056,-0.0529 -0.144639,0 -0.310444,0.13405 -0.402167,0.22225 z m 0.289278,0.0212 c 0.04233,-0.0176 0.112889,0 0.09172,0.0635 -0.01058,0.0353 -0.04233,0.0847 -0.08114,0.12348 -0.04233,0.0423 -0.08467,0.0741 -0.127,0.0988 -0.03528,0.0212 -0.08114,0.0423 -0.116417,0.0494 -0.0035,-0.0459 0,-0.1023 0.02117,-0.14464 0.04586,-0.0917 0.102305,-0.14816 0.211666,-0.1905 z"
         style="font-style:normal;font-variant:normal;font-weight:normal;font-stretch:normal;font-size:3.52777767px;font-family:'Night Wind Sent Sample';-inkscape-font-specification:'Night Wind Sent Sample';fill:#646464;fill-opacity:1;stroke-width:0.26458332px"
         id="path1991" />
    </g>
  </g>
  <g
     inkscape:groupmode="layer"
     id="layer2"
     inkscape:label="widgets"
     style="display:none">
    <rect
       style="opacity:0.26199999;vector-effect:none;fill:#ffff00;fill-opacity:1;fill-rule:evenodd;stroke:none;stroke-width:0.69293082;stroke-linecap:butt;stroke-linejoin:miter;stroke-miterlimit:4;stroke-dasharray:none;stroke-dashoffset:0;stroke-opacity:0.50196078;paint-order:normal"
       id="rect37950"
       width="75"
       height="75"
       x="26"
       y="26.75" />
    <rect
       y="118.28827"
       x="2"
       height="8.211731"
       width="8.21173"
       id="rect22623"
       style="display:inline;opacity:1;vector-effect:none;fill:#00ff00;fill-opacity:0.42564105;fill-rule:evenodd;stroke:none;stroke-width:0.5821259;stroke-linecap:butt;stroke-linejoin:miter;stroke-miterlimit:4;stroke-dasharray:none;stroke-dashoffset:0;stroke-opacity:1;paint-order:normal" />
    <rect
       style="display:inline;opacity:1;vector-effect:none;fill:#00ff00;fill-opacity:0.42564105;fill-rule:evenodd;stroke:none;stroke-width:0.5821259;stroke-linecap:butt;stroke-linejoin:miter;stroke-miterlimit:4;stroke-dasharray:none;stroke-dashoffset:0;stroke-opacity:1;paint-order:normal"
       id="rect1024"
       width="8.21173"
       height="8.211731"
       x="21.334398"
       y="118.28827" />
    <rect
       y="118.28827"
       x="40.668797"
       height="8.211731"
       width="8.21173"
       id="rect1030"
       style="display:inline;opacity:1;vector-effect:none;fill:#00ff00;fill-opacity:0.42564105;fill-rule:evenodd;stroke:none;stroke-width:0.5821259;stroke-linecap:butt;stroke-linejoin:miter;stroke-miterlimit:4;stroke-dasharray:none;stroke-dashoffset:0;stroke-opacity:1;paint-order:normal" />
  </g>
</svg>
